<svg xmlns="http://www.w3.org/2000/svg" xmlns:xlink="http://www.w3.org/1999/xlink" width="400" zoomAndPan="magnify" viewBox="0 0 300 108.96" height="135" preserveAspectRatio="xMidYMid meet" version="1.0"><defs><clipPath id="0eac8c117e"><path d="M 11 31.183594 L 295 31.183594 L 295 70 L 11 70 Z M 11 31.183594 " clip-rule="nonzero"/></clipPath></defs><g clip-path="url(#0eac8c117e)"><path fill="#223515" d="M 101.734375 41.546875 L 101.734375 69.804688 L 96.210938 69.804688 L 96.210938 31.183594 L 102.582031 31.183594 L 123.933594 59.082031 C 123.878906 59.117188 123.957031 59.089844 124.003906 59.035156 C 124.0625 58.972656 124.128906 58.886719 124.128906 58.808594 C 124.132812 49.660156 124.132812 40.507812 124.132812 31.242188 L 129.679688 31.242188 L 129.679688 69.746094 L 123.828125 69.746094 L 101.734375 41.546875 M 217.21875 49.207031 L 227.519531 49.207031 L 222.5625 38.90625 L 217.21875 49.207031 M 214.039062 57.464844 L 208.667969 69.71875 L 201.773438 69.71875 C 202.363281 68.304688 202.820312 67.019531 203.429688 65.8125 C 205.699219 61.335938 210.902344 49.457031 211.5 48.113281 C 213.46875 43.6875 215.257812 39.183594 217.527344 34.894531 C 218.125 33.757812 218.449219 32.476562 218.929688 31.183594 L 225.574219 31.183594 C 225.847656 31.828125 231.644531 44.675781 242.964844 69.71875 C 241.226562 69.742188 239.996094 69.765625 239.28125 69.785156 C 238.167969 69.820312 237.050781 69.792969 235.90625 69.792969 L 230.488281 57.464844 Z M 11.246094 69.804688 L 11.246094 31.183594 L 39.570312 31.183594 L 39.570312 37.273438 L 16.765625 37.273438 L 16.765625 45.71875 L 29.707031 45.71875 L 29.707031 51.921875 L 16.671875 51.921875 L 16.671875 69.804688 Z M 275.109375 45.945312 L 286.769531 31.183594 L 294.460938 31.183594 C 291.949219 35.050781 289.1875 38.609375 286.46875 42.167969 C 284.351562 44.9375 282.339844 47.808594 280.09375 50.492188 C 279.007812 51.789062 278.261719 53.179688 278.332031 55.113281 C 278.515625 59.964844 278.394531 64.828125 278.394531 69.792969 L 271.90625 69.792969 C 271.945312 69.832031 271.867188 69.769531 271.820312 69.695312 C 271.773438 69.621094 271.742188 69.539062 271.738281 69.449219 C 271.730469 63.738281 271.734375 58.023438 271.734375 52.402344 C 269.050781 48.855469 266.429688 45.351562 263.773438 41.878906 C 261.148438 38.445312 258.4375 35.074219 255.839844 31.203125 L 263.628906 31.203125 L 275.109375 45.945312 M 161.28125 63.765625 L 183.75 63.765625 L 183.75 69.804688 L 155.425781 69.804688 L 155.425781 31.269531 C 156.289062 31.242188 157.257812 31.207031 158.222656 31.191406 C 159.214844 31.179688 160.203125 31.191406 161.28125 31.191406 Z M 62.738281 69.804688 L 67.890625 69.804688 L 67.890625 31.183594 L 62.738281 31.183594 Z M 62.738281 69.804688 " fill-opacity="1" fill-rule="nonzero"/></g></svg>